<?xml version="1.0" encoding="utf-8"?>
<!-- Generator: Adobe Illustrator 15.1.0, SVG Export Plug-In . SVG Version: 6.00 Build 0)  -->
<!DOCTYPE svg PUBLIC "-//W3C//DTD SVG 1.1//EN" "http://www.w3.org/Graphics/SVG/1.1/DTD/svg11.dtd">
<svg version="1.1" id="Слой_1" focusable="false"
	 xmlns="http://www.w3.org/2000/svg" xmlns:xlink="http://www.w3.org/1999/xlink" x="0px" y="0px" width="850.394px"
	 height="850.394px" viewBox="-127.557 -4.252 850.394 850.394" enable-background="new -127.557 -4.252 850.394 850.394"
	 xml:space="preserve">
<path d="M297.64-4.252c-234.887,0-425.197,190.31-425.197,425.197S62.753,846.142,297.64,846.142
	c234.887,0,425.197-190.311,425.197-425.197S532.527-4.252,297.64-4.252z M517.097,718.582
	c-61.551,45.435-137.332,72.694-219.457,72.694s-157.905-27.26-219.456-72.694v-23.317c0-60.521,49.206-109.729,109.728-109.729
	c19.031,0,47.149,19.548,109.729,19.548c62.75,0,90.526-19.548,109.729-19.548c60.521,0,109.729,49.207,109.729,109.729V718.582z
	 M569.56,671.433c-11.657-79.553-79.383-140.76-162.191-140.76c-35.147,0-52.12,19.545-109.729,19.545
	c-57.608,0-74.409-19.545-109.729-19.545c-82.811,0-150.533,61.207-162.192,140.76c-60.865-66.009-98.412-153.79-98.412-250.488
	c0-204.197,166.135-370.333,370.333-370.333c204.197,0,370.331,166.136,370.331,370.333
	C667.971,517.643,630.424,605.424,569.56,671.433z M297.64,187.773c-83.325,0-150.876,67.551-150.876,150.876
	s67.552,150.875,150.876,150.875c83.325,0,150.875-67.55,150.875-150.875S380.965,187.773,297.64,187.773z M297.64,434.661
	c-52.978,0-96.012-43.034-96.012-96.012s43.034-96.012,96.012-96.012c52.979,0,96.012,43.034,96.012,96.012
	S350.62,434.661,297.64,434.661z"/>
</svg>
